<?xml version="1.0" standalone="no"?>
<svg xmlns="http://www.w3.org/2000/svg"
 width="494.000000pt" height="494.000000pt" viewBox="0 0 494.000000 494.000000"
 preserveAspectRatio="xMidYMid meet">
<metadata>
Created by potrace 1.11, written by Peter Selinger 2001-2013
</metadata>
<g transform="translate(0.000000,494.000000) scale(0.100000,-0.100000)"
fill="#000000" stroke="none">
<path d="M507 4470 c-108 -19 -207 -95 -255 -198 l-27 -57 0 -1675 0 -1675 27
-57 c50 -107 146 -179 264 -198 80 -13 3808 -13 3888 0 118 19 214 91 264 198
l27 57 0 1675 0 1675 -27 57 c-50 107 -146 179 -264 198 -72 12 -3827 11
-3897 0z m3877 -306 c14 -13 16 -48 16 -225 l0 -209 -1940 0 -1940 0 0 209 c0
177 2 212 16 225 14 14 202 16 1924 16 1722 0 1910 -2 1924 -16z m16 -1983 c0
-1123 -2 -1251 -16 -1265 -14 -14 -202 -16 -1924 -16 -1722 0 -1910 2 -1924
16 -14 14 -16 142 -16 1265 l0 1249 1940 0 1940 0 0 -1249z"/>
<path d="M793 4050 c-40 -24 -53 -48 -53 -98 0 -50 29 -88 79 -103 32 -9 44
-8 75 6 86 41 87 165 1 201 -45 19 -64 18 -102 -6z"/>
<path d="M1153 4050 c-40 -24 -53 -48 -53 -98 0 -50 29 -88 79 -103 32 -9 44
-8 75 6 86 41 87 165 1 201 -45 19 -64 18 -102 -6z"/>
<path d="M1513 4050 c-40 -24 -53 -48 -53 -98 0 -75 72 -126 146 -102 92 31
98 169 9 206 -45 19 -64 18 -102 -6z"/>
<path d="M2865 3046 c-16 -7 -40 -24 -51 -37 -29 -32 -884 -1516 -895 -1551
-10 -35 7 -96 34 -127 46 -50 133 -66 189 -33 35 20 21 -3 548 910 l382 663
-4 50 c-4 40 -12 57 -39 85 -30 31 -81 54 -119 54 -8 -1 -28 -7 -45 -14z"/>
<path d="M1520 2889 c-27 -8 -108 -84 -347 -322 -263 -264 -313 -318 -322
-352 -22 -85 -19 -91 327 -437 304 -303 319 -317 362 -323 105 -15 194 73 175
173 -6 31 -44 75 -258 289 l-251 253 241 242 c132 134 248 257 257 275 21 42
20 76 -4 122 -33 65 -110 99 -180 80z"/>
<path d="M3319 2891 c-45 -14 -79 -43 -100 -82 -23 -46 -24 -80 -3 -122 9 -18
125 -141 257 -275 l241 -242 -251 -253 c-217 -217 -252 -257 -258 -290 -10
-52 11 -103 58 -141 33 -26 47 -31 91 -31 37 1 61 7 82 22 16 12 162 156 326
320 249 251 298 304 307 338 22 84 16 92 -308 418 -163 164 -309 307 -326 317
-38 23 -83 31 -116 21z"/>
</g>
</svg>
